<svg xmlns="http://www.w3.org/2000/svg" viewBox="0 0 64 64">
  <rect width="64" height="64" fill="#1a5832" rx="8"/>
  <g fill="none" stroke="#dab4ba" stroke-width="2" stroke-linecap="round" stroke-linejoin="round">
    <!-- Flower petals -->
    <ellipse cx="32" cy="28" rx="4" ry="7" transform="rotate(-30 32 28)" fill="#dab4ba"/>
    <ellipse cx="32" cy="28" rx="4" ry="7" transform="rotate(30 32 28)" fill="#dab4ba"/>
    <ellipse cx="32" cy="28" rx="4" ry="7" transform="rotate(90 32 28)" fill="#dab4ba"/>
    <ellipse cx="32" cy="28" rx="4" ry="7" transform="rotate(-90 32 28)" fill="#dab4ba"/>
    <ellipse cx="32" cy="28" rx="4" ry="7" transform="rotate(150 32 28)" fill="#dab4ba"/>
    
    <!-- Center -->
    <circle cx="32" cy="28" r="3" fill="#ffcc80"/>
    
    <!-- Stem -->
    <path d="M 32 31 Q 32 40 30 48" stroke="#85a88e" stroke-width="2.5"/>
    
    <!-- Leaf left -->
    <path d="M 30 40 Q 22 42 20 38" stroke="#85a88e" stroke-width="1.5" fill="#85a88e"/>
    
    <!-- Leaf right -->
    <path d="M 30 45 Q 38 47 40 43" stroke="#85a88e" stroke-width="1.5" fill="#85a88e"/>
  </g>
  
  <!-- Letter F stylized -->
  <text x="32" y="60" font-family="serif" font-size="16" font-weight="bold" fill="#dab4ba" text-anchor="middle">FR</text>
</svg>
